# xmcd CD database file
#
# Track frame offsets:
#	150
#	16388
#	41325
#	61650
#	92263
#	101568
#	124350
#	146313
#	162225
#	180488
#
# Disc length: 2650 seconds
#
# Revision: 0
# Processed by: cddbd v1.5.2PL0 Copyright (c) Steve Scherf et al.
# Submitted via: CDex 1.70beta2
#
DISCID=720a580a
DTITLE=Ayako Sakamoto - Triangulo Andaluz
DYEAR=1900
DGENRE=Jazz
TTITLE0=Coche de Caballos
TTITLE1=Spain
TTITLE2=Nino Pequeno
TTITLE3=Solea en Triana
TTITLE4=Me da Paz
TTITLE5=Casas Viejas
TTITLE6=Puerta Abierta
TTITLE7=La Vida Gracias Adios 1
TTITLE8=La Vida Gracias Adios 2
TTITLE9=El Hombre
EXTD=
EXTT0=
EXTT1=
EXTT2=
EXTT3=
EXTT4=
EXTT5=
EXTT6=
EXTT7=
EXTT8=
EXTT9=
PLAYORDER=
